<svg viewBox="0 0 400 280" xmlns="http://www.w3.org/2000/svg">
  <defs>
    <linearGradient id="sky" x1="0" y1="0" x2="0" y2="1">
      <stop offset="0%" stop-color="#81d4fa"/>
      <stop offset="100%" stop-color="#e1f5fe"/>
    </linearGradient>
  </defs>
  <rect width="400" height="280" fill="url(#sky)"/>
  <!-- 구름 -->
  <ellipse cx="80" cy="50" rx="40" ry="18" fill="white" opacity="0.8"/>
  <ellipse cx="110" cy="45" rx="30" ry="15" fill="white" opacity="0.8"/>
  <ellipse cx="300" cy="60" rx="35" ry="14" fill="white" opacity="0.7"/>
  <!-- 배경 언덕 -->
  <ellipse cx="200" cy="220" rx="250" ry="80" fill="#a5d6a7"/>
  <ellipse cx="380" cy="230" rx="100" ry="60" fill="#81c784"/>
  <!-- 나무들 -->
  <g>
    <rect x="38" y="155" width="7" height="35" fill="#795548"/>
    <circle cx="41" cy="148" r="18" fill="#388e3c"/>
    <circle cx="31" cy="155" r="14" fill="#43a047"/>
    <circle cx="51" cy="155" r="14" fill="#2e7d32"/>
  </g>
  <g>
    <rect x="338" y="155" width="7" height="35" fill="#795548"/>
    <circle cx="341" cy="148" r="18" fill="#388e3c"/>
    <circle cx="331" cy="158" r="14" fill="#43a047"/>
    <circle cx="351" cy="155" r="14" fill="#2e7d32"/>
  </g>
  <g>
    <rect x="358" y="170" width="5" height="25" fill="#795548"/>
    <circle cx="360" cy="163" r="14" fill="#66bb6a"/>
  </g>
  <!-- 집 본체 -->
  <rect x="130" y="155" width="140" height="80" fill="#fff9c4"/>
  <!-- 지붕 -->
  <polygon points="110,155 200,100 290,155" fill="#ef9a9a"/>
  <!-- 굴뚝 -->
  <rect x="240" y="108" width="14" height="25" fill="#bdbdbd"/>
  <!-- 문 -->
  <rect x="185" y="195" width="30" height="40" fill="#a1887f"/>
  <circle cx="211" cy="216" r="3" fill="#ffd54f"/>
  <!-- 창문 -->
  <rect x="143" y="170" width="35" height="28" fill="#81d4fa"/>
  <line x1="160" y1="170" x2="160" y2="198" stroke="#fff" stroke-width="2"/>
  <line x1="143" y1="184" x2="178" y2="184" stroke="#fff" stroke-width="2"/>
  <rect x="222" y="170" width="35" height="28" fill="#81d4fa"/>
  <line x1="239" y1="170" x2="239" y2="198" stroke="#fff" stroke-width="2"/>
  <line x1="222" y1="184" x2="257" y2="184" stroke="#fff" stroke-width="2"/>
  <!-- 태양광 패널 -->
  <rect x="148" y="118" width="40" height="22" fill="#1565c0" opacity="0.8"/>
  <line x1="168" y1="118" x2="168" y2="140" stroke="#90caf9" stroke-width="1"/>
  <line x1="148" y1="129" x2="188" y2="129" stroke="#90caf9" stroke-width="1"/>
  <!-- 꽃밭 -->
  <circle cx="110" cy="235" r="5" fill="#f48fb1"/>
  <circle cx="125" cy="232" r="5" fill="#fff176"/>
  <circle cx="140" cy="236" r="4" fill="#f48fb1"/>
  <circle cx="270" cy="233" r="5" fill="#ce93d8"/>
  <circle cx="285" cy="236" r="4" fill="#fff176"/>
  <!-- 텍스트 -->
  <text x="200" y="20" font-family="sans-serif" font-size="13" fill="#1b5e20" text-anchor="middle" font-weight="bold">숲과 함께하는 보금자리</text>
  <text x="200" y="36" font-family="sans-serif" font-size="10" fill="#2e7d32" text-anchor="middle">자연 속에서 살아가는 친환경 마을</text>
</svg>
