<svg viewBox="0 0 400 280" xmlns="http://www.w3.org/2000/svg">
  <defs>
    <linearGradient id="sky" x1="0" y1="0" x2="0" y2="1">
      <stop offset="0%" stop-color="#4a4a4a"/>
      <stop offset="100%" stop-color="#7d6c55"/>
    </linearGradient>
    <radialGradient id="smoke1" cx="50%" cy="50%">
      <stop offset="0%" stop-color="#9e9e9e" stop-opacity="0.8"/>
      <stop offset="100%" stop-color="#616161" stop-opacity="0"/>
    </radialGradient>
  </defs>
  <rect width="400" height="280" fill="url(#sky)"/>
  <!-- 공장 건물들 -->
  <rect x="50" y="140" width="80" height="100" fill="#424242"/>
  <rect x="120" y="120" width="60" height="120" fill="#37474f"/>
  <rect x="170" y="100" width="90" height="140" fill="#424242"/>
  <rect x="250" y="130" width="70" height="110" fill="#37474f"/>
  <rect x="310" y="150" width="60" height="90" fill="#424242"/>
  <!-- 굴뚝들 -->
  <rect x="65" y="80" width="18" height="65" fill="#616161"/>
  <rect x="90" y="60" width="18" height="85" fill="#757575"/>
  <rect x="185" y="50" width="22" height="55" fill="#616161"/>
  <rect x="215" y="40" width="20" height="65" fill="#757575"/>
  <rect x="265" y="70" width="18" height="65" fill="#616161"/>
  <rect x="320" y="90" width="16" height="65" fill="#757575"/>
  <!-- 연기 -->
  <ellipse cx="74" cy="72" rx="25" ry="18" fill="#9e9e9e" opacity="0.7"/>
  <ellipse cx="60" cy="52" rx="30" ry="20" fill="#bdbdbd" opacity="0.5"/>
  <ellipse cx="40" cy="35" rx="35" ry="22" fill="#9e9e9e" opacity="0.4"/>
  <ellipse cx="99" cy="52" rx="28" ry="20" fill="#9e9e9e" opacity="0.7"/>
  <ellipse cx="80" cy="32" rx="35" ry="22" fill="#bdbdbd" opacity="0.5"/>
  <ellipse cx="194" cy="40" rx="30" ry="20" fill="#9e9e9e" opacity="0.7"/>
  <ellipse cx="175" cy="22" rx="38" ry="22" fill="#bdbdbd" opacity="0.5"/>
  <ellipse cx="224" cy="28" rx="32" ry="20" fill="#9e9e9e" opacity="0.6"/>
  <ellipse cx="274" cy="58" rx="26" ry="18" fill="#9e9e9e" opacity="0.7"/>
  <ellipse cx="329" cy="78" rx="24" ry="16" fill="#9e9e9e" opacity="0.6"/>
  <!-- 오염된 강 -->
  <path d="M0,250 Q100,240 200,252 Q300,262 400,248" fill="none" stroke="#4caf50" stroke-width="12" opacity="0.5"/>
  <path d="M0,255 Q100,245 200,257 Q300,267 400,253" fill="none" stroke="#8bc34a" stroke-width="6" opacity="0.4"/>
  <!-- 붉은 경고 빛 -->
  <circle cx="200" cy="140" r="120" fill="#f44336" opacity="0.07"/>
  <!-- 텍스트 -->
  <text x="200" y="20" font-family="sans-serif" font-size="13" fill="#ffccbc" text-anchor="middle" font-weight="bold">검은 연기가 뒤덮은 마을</text>
  <text x="200" y="36" font-family="sans-serif" font-size="10" fill="#ff8a65" text-anchor="middle">경제는 성장했지만 하늘이 사라졌습니다</text>
</svg>
